{
  "accessors": [
    {
      "bufferView": 2,
      "componentType": 5126,
      "count": 55223,
      "max": [
        0.2139558494091034,
        0.3433005213737488,
        0.42042914032936096
      ],
      "min": [
        -0.2202741503715515,
        -0.2857298254966736,
        -0.5730650424957275
      ],
      "type": "VEC3"
    },
    {
      "bufferView": 2,
      "byteOffset": 662676,
      "componentType": 5126,
      "count": 55223,
      "max": [
        0.9999938011169434,
        0.9999285340309143,
        0.9998631477355957
      ],
      "min": [
        -0.999998927116394,
        -0.9999922513961792,
        -0.999991774559021
      ],
      "type": "VEC3"
    },
    {
      "bufferView": 1,
      "componentType": 5126,
      "count": 55223,
      "max": [
        0.9995659589767456,
        0.999567449092865
      ],
      "min": [
        0.0004340277810115367,
        0.00043255090713500977
      ],
      "type": "VEC2"
    },
    {
      "bufferView": 0,
      "componentType": 5125,
      "count": 55233,
      "type": "SCALAR"
    }
  ],
  "asset": {
    "extras": {
      "author": "AshCreations3D (https://sketchfab.com/Fancy_Models_Collections)",
      "license": "SKETCHFAB Standard (https://sketchfab.com/licenses)",
      "source": "https://sketchfab.com/3d-models/model-no-07-a959443e924a46e294c8a630bf3dce4e",
      "title": "Model No-07"
    },
    "generator": "Sketchfab-16.60.0",
    "version": "2.0"
  },
  "bufferViews": [
    {
      "buffer": 0,
      "byteLength": 220932,
      "name": "floatBufferViews",
      "target": 34963
    },
    {
      "buffer": 0,
      "byteLength": 441784,
      "byteOffset": 220932,
      "byteStride": 8,
      "name": "floatBufferViews",
      "target": 34962
    },
    {
      "buffer": 0,
      "byteLength": 1325352,
      "byteOffset": 662716,
      "byteStride": 12,
      "name": "floatBufferViews",
      "target": 34962
    }
  ],
  "buffers": [
    {
      "byteLength": 1988068,
      "uri": "scene.bin"
    }
  ],
  "images": [
    {
      "uri": "textures/Material_0.007_baseColor.png"
    }
  ],
  "materials": [
    {
      "doubleSided": true,
      "name": "Material_0.007",
      "pbrMetallicRoughness": {
        "baseColorTexture": {
          "index": 0
        },
        "roughnessFactor": 0.903602
      }
    }
  ],
  "meshes": [
    {
      "name": "Object_0",
      "primitives": [
        {
          "attributes": {
            "NORMAL": 1,
            "POSITION": 0,
            "TEXCOORD_0": 2
          },
          "indices": 3,
          "material": 0,
          "mode": 4
        }
      ]
    }
  ],
  "nodes": [
    {
      "children": [
        1
      ],
      "matrix": [
        1.0,
        0.0,
        0.0,
        0.0,
        0.0,
        2.220446049250313e-16,
        -1.0,
        0.0,
        0.0,
        1.0,
        2.220446049250313e-16,
        0.0,
        0.0,
        0.0,
        0.0,
        1.0
      ],
      "name": "Sketchfab_model"
    },
    {
      "children": [
        2
      ],
      "name": "root"
    },
    {
      "children": [
        3
      ],
      "matrix": [
        1.0,
        0.0,
        0.0,
        0.0,
        0.0,
        2.220446049250313e-16,
        1.0,
        0.0,
        0.0,
        -1.0,
        2.220446049250313e-16,
        0.0,
        0.0,
        0.0,
        0.0,
        1.0
      ],
      "name": "GLTF_SceneRootNode"
    },
    {
      "children": [
        4
      ],
      "matrix": [
        2.5416924953460693,
        0.0,
        0.0,
        0.0,
        0.0,
        2.5416924953460693,
        0.0,
        0.0,
        0.0,
        0.0,
        2.5416924953460693,
        0.0,
        2.7221837043762207,
        0.2944217622280121,
        0.20253387093544006,
        1.0
      ],
      "name": "Model N0-07_0"
    },
    {
      "mesh": 0,
      "name": "Object_4"
    }
  ],
  "samplers": [
    {
      "magFilter": 9729,
      "minFilter": 9987,
      "wrapS": 10497,
      "wrapT": 10497
    }
  ],
  "scene": 0,
  "scenes": [
    {
      "name": "Sketchfab_Scene",
      "nodes": [
        0
      ]
    }
  ],
  "textures": [
    {
      "sampler": 0,
      "source": 0
    }
  ]
}
