<svg xmlns:xlink="http://www.w3.org/1999/xlink"  xmlns="http://www.w3.org/2000/svg" width="13" height="24" viewBox="0 0 13 24" fill="none"><script xmlns="" id="eppiocemhmnlbhjplcgkofciiegomcon"/><script xmlns=""/><script xmlns=""/>
<path d="M3.8245 18.4381C3.70921 16.9394 3.70921 15.4407 3.59393 13.8267C3.59393 13.0197 3.24808 12.4433 2.3258 12.4433C1.74937 12.4433 1.17295 12.5586 1.05766 11.7516C0.942379 10.714 0.71181 9.56117 1.05766 8.52361C1.05766 8.40833 1.51881 8.17777 1.74937 8.17777C3.47865 8.52362 3.8245 7.60133 3.8245 6.21792C3.8245 2.52881 6.93719 0.568951 10.9722 0.799521C12.125 0.914805 12.125 1.83709 12.125 2.64408C12.0097 3.45108 12.4709 4.60394 10.9722 4.60394C9.70402 4.48865 8.78174 4.9498 8.78174 6.4485C8.78174 7.48606 8.89703 8.29303 10.1652 8.40832C12.0097 8.5236 11.6639 9.79176 11.6639 11.0599C11.7791 12.4433 11.0874 12.9044 9.81931 12.9044C8.55117 12.9044 8.3206 13.5961 8.3206 14.749C8.3206 17.2852 8.3206 19.7062 8.20532 22.2425C8.09003 23.8565 7.74418 23.9717 5.55377 23.8565C4.05507 23.8565 3.8245 23.1648 3.93978 21.8966C3.70921 20.8591 3.70921 19.7062 3.8245 18.4381Z" fill="white"/>
</svg>