<svg xmlns:xlink="http://www.w3.org/1999/xlink"  xmlns="http://www.w3.org/2000/svg" width="23" height="23" viewBox="0 0 23 23" fill="none"><script xmlns="" id="eppiocemhmnlbhjplcgkofciiegomcon"/><script xmlns=""/><script xmlns=""/>
<path d="M11.3408 22.298C9.36539 22.298 7.38993 22.4163 5.53068 22.298C2.858 22.0615 1.81216 21.1153 1.34735 18.2767C0.766335 14.965 0.533935 11.7716 0.882545 8.45994C0.998748 7.2772 1.11494 5.97617 1.34735 4.79343C1.69596 2.30967 2.7418 1.2452 5.18207 0.653834C6.2279 0.417285 7.15753 0.298997 8.20336 0.417271C10.4112 0.535545 12.6191 0.535538 14.8269 0.298989C15.8728 0.180715 16.8024 0.298997 17.8482 0.417271C19.8237 0.653819 21.2181 1.71831 21.4505 3.72897C22.1478 8.69649 22.7288 13.664 21.7991 18.6315C21.3343 20.997 20.2885 21.9432 17.9644 22.4163C15.8728 22.5346 13.6649 22.4163 11.3408 22.298ZM11.8057 6.44926C9.13298 6.33099 6.80891 8.34166 6.5765 10.8254C6.3441 13.9006 8.20336 15.9112 11.3408 16.1478C13.7811 16.266 16.1052 14.1371 16.3376 11.4168C16.57 8.93304 14.4783 6.56754 11.8057 6.44926ZM19.0103 4.55687C18.8941 3.84722 18.5455 3.37413 17.732 3.37413C16.8024 3.37413 16.3376 3.96551 16.3376 4.79343C16.3376 5.62135 16.8024 6.2127 17.732 6.2127C18.6617 6.09443 19.0103 5.50306 19.0103 4.55687Z" fill="white"/>
</svg>