<svg xmlns:xlink="http://www.w3.org/1999/xlink"  xmlns="http://www.w3.org/2000/svg" width="23" height="22" viewBox="0 0 23 22" fill="none"><script xmlns="" id="eppiocemhmnlbhjplcgkofciiegomcon"/><script xmlns=""/><script xmlns=""/>
<path d="M3.854 13.823C3.16092 13.13 2.46785 12.4369 1.91339 11.7438C1.22031 10.7735 -0.165837 9.80322 1.77477 8.55568C2.32923 8.13984 1.91339 7.30812 1.77477 6.75366C1.35893 5.50613 1.22031 4.25862 1.22031 2.31801C3.02231 4.95169 4.8243 6.47646 7.45799 7.16953C8.28968 7.44676 9.12137 7.44675 10.0917 7.58536C11.7551 7.72398 12.4481 6.89227 12.5867 5.22889C13.0026 0.931821 15.359 -0.454329 19.1017 1.76351C20.4878 2.5952 21.0423 1.34767 22.1512 1.20906C22.567 2.31798 23.2601 3.4269 22.1512 4.67444C21.5967 5.2289 21.7353 6.0606 21.7353 6.89229C21.5967 13.4072 17.5769 18.8132 11.3392 20.7538C9.39859 21.4469 7.31937 21.8627 5.10153 21.8627C3.29953 21.7241 1.63615 21.4469 0.25 19.6449C2.052 19.3677 4.13123 20.338 5.37876 18.2587C4.54707 17.0112 2.32923 16.5953 2.19061 14.5161C2.46784 13.823 3.43815 14.5161 3.854 13.823Z" fill="white"/>
</svg>